Coordinates
version=1
nRows=21
nColumns=19
inDegrees=yes

Units are S.I. units (second, meters, Newtons, ...)
If the header above contains a line with 'inDegrees', this indicates whether rotational values are in degrees (yes) or radians (no).

endheader
time	pelvis_tilt	pelvis_list	pelvis_rotation	pelvis_tx	pelvis_ty	pelvis_tz	hip_flexion_r	hip_adduction_r	hip_rotation_r	knee_angle_r	knee_angle_r_beta	ankle_angle_r	hip_flexion_l	hip_adduction_l	hip_rotation_l	knee_angle_l	knee_angle_l_beta	ankle_angle_l
     13.45333333	     -1.66414008	      3.81700355	     -0.36289140	      2.27497692	      0.97714848	      1.02193725	    -10.12021071	    -12.36180871	    -24.64200246	     45.58072639	      0.79553375	    -13.96158721	     15.26637717	      7.15702553	     -6.56372235	      6.62669890	      0.11565771	      7.19022651
     13.46000000	     -1.62424561	      4.19179253	     -0.15095962	      2.27542720	      0.97352748	      1.02064014	     -9.22618441	    -13.40895621	    -24.68383039	     48.19270957	      0.84112146	    -12.70746170	     15.56926661	      7.53606862	     -7.03040496	      8.72124065	      0.15221436	      6.80406872
     13.46666667	     -0.92822685	      4.63266466	      0.09611593	      2.27583916	      0.97040008	      1.01949950	     -9.06791348	    -14.39870010	    -24.63629951	     50.60042686	      0.88314405	    -11.26647088	     15.09580295	      7.98595663	     -7.31805661	     10.85989332	      0.18954089	      6.38678528
     13.47333333	     -1.32735768	      4.74699606	      0.29424430	      2.27567901	      0.96585887	      1.01831487	     -7.36541229	    -15.00880209	    -23.99423668	     53.28787697	      0.93004890	     -9.97493451	     16.26707793	      7.93993669	     -8.01862392	     14.06773389	      0.24552827	      6.50835024
     13.48000000	     -0.50261325	      5.16546838	      0.49613044	      2.27566555	      0.96242742	      1.01738120	     -7.10409876	    -15.87720341	    -23.58275757	     55.70669338	      0.97226521	     -8.59923012	     15.80337397	      8.26517159	     -8.38793450	     16.75154466	      0.29236961	      6.63654239
     13.48666667	     -1.18566781	      4.98908457	      0.64928762	      2.27494187	      0.95730910	      1.01645443	     -4.75861466	    -15.99537446	    -22.39551719	     58.38238858	      1.01896491	     -7.51504454	     17.40522438	      7.79746780	     -9.07964311	     20.40333213	      0.35610532	      7.38075353
     13.49333333	     -1.10569691	      5.01040700	      0.78781501	      2.27421239	      0.95297728	      1.01575708	     -3.27229802	    -16.25503089	    -21.34025246	     60.85367939	      1.06209707	     -6.42113382	     17.91488666	      7.58202565	     -9.49448570	     23.56772898	      0.41133447	      8.29498441
     13.50000000	     -0.94480510	      4.96833521	      0.90709656	      2.27325060	      0.94883779	      1.01521576	     -1.77376442	    -16.35073664	    -20.17702873	     63.21588381	      1.10332531	     -5.43867313	     18.23747817	      7.30369661	     -9.77055741	     26.57846755	      0.46388177	      9.51091874
     13.50666667	     -0.77224398	      4.89808911	      1.04064257	      2.27204031	      0.94493579	      1.01480078	     -0.20886455	    -16.31783344	    -18.96010891	     65.46163055	      1.14252099	     -4.53800088	     18.41692906	      7.01914884	     -9.90705074	     29.34533304	      0.51217268	     10.86637484
     13.51333333	     -0.15439673	      4.87796492	      1.18300204	      2.27072718	      0.94182005	      1.01444049	      0.86307736	    -16.28042734	    -17.84064591	     67.46476126	      1.17748221	     -3.75883676	     17.87543236	      6.85611860	     -9.82069931	     31.66329689	      0.55262878	     12.58166820
     13.52000000	      0.27813855	      4.80883480	      1.36533915	      2.26917585	      0.93887821	      1.01410247	      2.19828465	    -16.11649072	    -16.71103065	     69.34090413	      1.21022708	     -3.00718980	     17.38634104	      6.68304230	     -9.61207807	     33.69793456	      0.58813991	     14.29968209
     13.52666667	      0.00362353	      4.56993976	      1.50222767	      2.26740814	      0.93562809	      1.01393643	      4.46159342	    -15.64007829	    -15.34094063	     71.13126041	      1.24147470	     -2.38309748	     17.56130141	      6.33157879	     -9.38636514	     35.53675703	      0.62023342	     16.04553579
     13.53333333	      0.45278953	      4.52389957	      1.77649739	      2.26569906	      0.93365813	      1.01367592	      5.74950886	    -15.38445029	    -14.38076113	     72.55369313	      1.26630083	     -1.67845089	     16.64160753	      6.27713395	     -8.94310084	     36.77311916	      0.64181201	     17.70612038
     13.54000000	      0.88774617	      4.46633389	      2.14660535	      2.26401838	      0.93239744	      1.01321626	      6.97809465	    -15.14752209	    -13.66336199	     73.68171254	      1.28598848	     -1.20035488	     15.47216790	      6.30287461	     -8.26632875	     37.48852025	      0.65429811	     19.02153437
     13.54666667	      0.52431484	      4.25048300	      2.27063611	      2.26232513	      0.93057648	      1.01310123	      9.25294781	    -14.58722063	    -12.49681657	     74.72414964	      1.30418244	     -0.48741060	     15.11212664	      6.05041724	     -8.00049936	     38.13321715	      0.66555019	     20.52764474
     13.55333333	      0.71866047	      4.12956539	      2.64605804	      2.26090538	      0.93011653	      1.01266267	     10.62965608	    -14.23008661	    -11.91145252	     75.30577711	      1.31433376	      0.12099622	     13.82923477	      6.02198232	     -7.32916860	     38.16143748	      0.66604273	     21.66898967
     13.56000000	      0.77341952	      3.95991741	      3.02503848	      2.25960829	      0.93010028	      1.01218909	     12.09249611	    -13.81041309	    -11.39564892	     75.59943291	      1.31945902	      0.71060092	     12.53534968	      5.94891787	     -6.63756573	     37.87330191	      0.66101382	     22.53095254
     13.56666667	      0.65084382	      3.74948224	      3.36634376	      2.25867024	      0.93046344	      1.01172501	     13.63915548	    -13.39391604	    -11.01428362	     75.58711180	      1.31924397	      1.34773710	     11.24106057	      5.82319446	     -6.00634425	     37.22977820	      0.64978221	     23.20834359
     13.57333333	      0.38878201	      3.51890284	      3.70825577	      2.25806532	      0.93124024	      1.01120944	     15.21715480	    -12.99599695	    -10.76136351	     75.26460934	      1.31361524	      1.98780179	      9.93815904	      5.67625296	     -5.40628019	     36.28874954	      0.63335816	     23.62536223
     13.58000000	      0.03194035	      3.28799689	      4.02141640	      2.25770665	      0.93244466	      1.01068059	     16.78964473	    -12.64251389	    -10.62788060	     74.65382176	      1.30295499	      2.62218880	      8.59526577	      5.54472883	     -4.77884922	     35.05869266	      0.61188962	     23.77370397
     13.58666667	      0.33435165	      3.39649080	      4.26388317	      2.25775989	      0.93486571	      1.01010842	     17.46926458	    -12.71618556	    -10.63308468	     73.73884031	      1.28698555	      3.26032178	      6.20676153	      5.78903825	     -4.00700362	     33.18295466	      0.57915181	     23.48306788
